<svg width="108" height="18" viewBox="0 0 108 18" fill="none" xmlns="http://www.w3.org/2000/svg">
<path d="M8.93292 0L10.9385 6.1725L17.4286 6.1725L12.178 9.98731L14.1836 16.1598L8.93292 12.345L3.68228 16.1598L5.68785 9.98731L0.437208 6.1725L6.92736 6.1725L8.93292 0Z" fill="#FAF7EF"/>
<path d="M31.265 0L33.2705 6.1725L39.7607 6.1725L34.51 9.98731L36.5156 16.1598L31.265 12.345L26.0143 16.1598L28.0199 9.98731L22.7692 6.1725L29.2594 6.1725L31.265 0Z" fill="#FAF7EF"/>
<path d="M53.598 0L55.6035 6.1725L62.0937 6.1725L56.843 9.98731L58.8486 16.1598L53.598 12.345L48.3473 16.1598L50.3529 9.98731L45.1022 6.1725L51.5924 6.1725L53.598 0Z" fill="#FAF7EF"/>
<path d="M75.93 0L77.9356 6.1725L84.4257 6.1725L79.1751 9.98731L81.1806 16.1598L75.93 12.345L70.6794 16.1598L72.6849 9.98731L67.4343 6.1725L73.9244 6.1725L75.93 0Z" fill="#FAF7EF"/>
<path d="M98.262 0L100.268 6.1725L106.758 6.1725L101.507 9.98731L103.513 16.1598L98.262 12.345L93.0114 16.1598L95.017 9.98731L89.7663 6.1725L96.2565 6.1725L98.262 0Z" fill="#FAF7EF"/>
</svg>
